# xmcd
#
# Track frame offsets:
#	150
#	8272
#	21184
#	33739
#	55036
#	71068
#	82617
#	92386
#	102876
#	129549
#	145133
#	161712
#	175571
#	187277
#	197037
#	212265
#	222031
#
# Disc length: 3135 seconds
# Revision: 0
# Processed by: cddbd v1.5.2PL0 Copyright (c) Steve Scherf et al.
# Submitted via: dBpowerAMP V12.0
#
DISCID=d70c3d11
DTITLE=Brazil Billy - The Way It Ought To Be
DYEAR=2012
DGENRE=Country
TTITLE0=Dance Around Molly
TTITLE1=Heart Over Mind
TTITLE2=Honky Tonk Mind
TTITLE3=El Paso
TTITLE4=Some Memories Just Wont Die
TTITLE5=Everyone Wants To Dance (with my girl)
TTITLE6=Go Boy Go
TTITLE7=Runaway
TTITLE8=Secret Agent Man
TTITLE9=Doggone Cowboy
TTITLE10=Cattle Call
TTITLE11=Effingham
TTITLE12=Speeding West
TTITLE13=Week and a Day
TTITLE14=Begging to You
TTITLE15=Ruby Ann
TTITLE16=Muda de Vida
EXTD=
EXTT0=
EXTT1=
EXTT2=
EXTT3=
EXTT4=
EXTT5=
EXTT6=
EXTT7=
EXTT8=
EXTT9=
EXTT10=
EXTT11=
EXTT12=
EXTT13=
EXTT14=
EXTT15=
EXTT16=
PLAYORDER=
